REM DIRINDEX 1\2,1\3
REM DIRNAME folder01,folder02,folder03
TITLE ""
FILE "Track96.mp3" MP3
  TRACK 01 AUDIO
    TITLE "0:"
    INDEX 01 00:00:00
  TRACK 02 AUDIO
    TITLE "3:cjc140_345"
    INDEX 01 00:00:05
  TRACK 03 AUDIO
    TITLE "2:cjc140_346"
    INDEX 01 00:02:08
  TRACK 04 AUDIO
    TITLE "2:cjc140_347"
    INDEX 01 00:09:24
  TRACK 05 AUDIO
    TITLE "2:cjc140_348"
    INDEX 01 00:13:63
  TRACK 06 AUDIO
    TITLE "0:"
    INDEX 01 00:22:50
